<svg xmlns="http://www.w3.org/2000/svg" version="1.1" xmlns:xlink="http://www.w3.org/1999/xlink" xmlns:svgjs="http://svgjs.dev/svgjs" width="1440" height="560" preserveAspectRatio="none" viewBox="0 0 1440 560"><g mask="url(&quot;#SvgjsMask1104&quot;)" fill="none"><rect width="1440" height="560" x="0" y="0" fill="rgba(24, 106, 59, 1)"></rect><path d="M0,438.065C93.894,440.588,190.262,467.865,275.94,429.371C367.259,388.342,435.755,308.8,483.527,220.82C533.525,128.741,560.157,25.081,552.196,-79.394C543.897,-188.301,508.262,-295.901,437.792,-379.349C366.851,-463.355,269.439,-536.319,159.762,-544.1C54.826,-551.544,-30.676,-469.441,-123.07,-419.138C-195.971,-379.448,-255.647,-327.85,-323.982,-280.732C-419.552,-214.835,-560.943,-194.434,-604.825,-86.961C-648.499,20.003,-603.722,150.415,-539.139,246.216C-478.189,336.627,-369.299,378.239,-266.572,414.794C-180.801,445.315,-91.006,435.62,0,438.065" fill="#135630"></path><path d="M1440 1158.022C1558.632 1182.159 1695.037 1180.281 1792.335 1108.2440000000001 1888.6770000000001 1036.916 1904.233 902.693 1939.579 788.15 1970.685 687.348 2004.701 585.308 1985.725 481.53700000000003 1967.127 379.83299999999997 1900.67 297.576 1835.232 217.52999999999997 1768.031 135.32799999999997 1695.579 59.69400000000002 1601.164 11.125999999999976 1491.541-45.264999999999986 1372.17-106.78599999999994 1251.232-82.88499999999999 1127.469-58.426000000000045 1033.022 40.54600000000005 954.137 138.998 877.38 234.79500000000002 817.565 346.808 808.833 469.252 800.403 587.46 838.561 706.602 906.746 803.529 968.807 891.75 1079.324 921.7370000000001 1169.15 981.451 1260.757 1042.349 1332.206 1136.0900000000001 1440 1158.022" fill="#1d7e46"></path></g><defs><mask id="SvgjsMask1104"><rect width="1440" height="560" fill="#ffffff"></rect></mask></defs></svg>